<mxfile host="2f22480d-d582-4e2c-8f6c-5e69c347ab9b" modified="2020-08-06T10:16:11.255Z" agent="5.0 (X11; Linux x86_64) AppleWebKit/537.36 (KHTML, like Gecko) Code/1.47.3 Chrome/78.0.3904.130 Electron/7.3.2 Safari/537.36" etag="Qw8LIggZadEhbQjZ68vC" version="13.1.3">
    <diagram id="6hGFLwfOUW9BJ-s0fimq" name="Page-1">
        <mxGraphModel dx="501" dy="819" grid="1" gridSize="10" guides="1" tooltips="1" connect="1" arrows="1" fold="1" page="1" pageScale="1" pageWidth="827" pageHeight="1169" math="0" shadow="0">
            <root>
                <mxCell id="0"/>
                <mxCell id="1" parent="0"/>
                <mxCell id="41" value="&lt;font color=&quot;#000000&quot;&gt;&lt;b&gt;A&lt;/b&gt;&lt;/font&gt;" style="rounded=0;whiteSpace=wrap;html=1;fillColor=#CCFFCC;strokeColor=#56517e;" vertex="1" parent="1">
                    <mxGeometry x="400" y="360" width="40" height="40" as="geometry"/>
                </mxCell>
                <mxCell id="43" value="&lt;font color=&quot;#000000&quot;&gt;&lt;b&gt;A&lt;/b&gt;&lt;/font&gt;" style="rounded=0;whiteSpace=wrap;html=1;fillColor=#CCFFCC;strokeColor=#56517e;" vertex="1" parent="1">
                    <mxGeometry x="360" y="360" width="40" height="40" as="geometry"/>
                </mxCell>
                <mxCell id="2" value="&lt;font color=&quot;#000000&quot;&gt;&lt;b&gt;A&lt;/b&gt;&lt;/font&gt;" style="rounded=0;whiteSpace=wrap;html=1;fillColor=#CCFFCC;strokeColor=#56517e;" vertex="1" parent="1">
                    <mxGeometry x="320" y="360" width="40" height="40" as="geometry"/>
                </mxCell>
                <mxCell id="20" value="&lt;b style=&quot;font-size: 12px ; font-style: normal ; letter-spacing: normal ; text-align: center ; text-indent: 0px ; text-transform: none ; word-spacing: 0px ; color: rgb(0 , 0 , 0) ; font-family: &amp;#34;helvetica&amp;#34;&quot;&gt;A&lt;/b&gt;" style="whiteSpace=wrap;html=1;aspect=fixed;fillColor=#b1ddf0;strokeColor=#10739e;" vertex="1" parent="1">
                    <mxGeometry x="440" y="280" width="40" height="40" as="geometry"/>
                </mxCell>
                <mxCell id="16" value="&lt;b&gt;&lt;font color=&quot;#000000&quot;&gt;A&lt;/font&gt;&lt;/b&gt;" style="whiteSpace=wrap;html=1;aspect=fixed;fillColor=#b1ddf0;strokeColor=#10739e;" vertex="1" parent="1">
                    <mxGeometry x="320" y="280" width="40" height="40" as="geometry"/>
                </mxCell>
                <mxCell id="19" value="&lt;b style=&quot;color: rgb(0 , 0 , 0) ; font-family: &amp;#34;helvetica&amp;#34; ; font-size: 12px ; font-style: normal ; letter-spacing: normal ; text-align: center ; text-indent: 0px ; text-transform: none ; word-spacing: 0px&quot;&gt;A&lt;/b&gt;" style="whiteSpace=wrap;html=1;aspect=fixed;fillColor=#b1ddf0;strokeColor=#10739e;" vertex="1" parent="1">
                    <mxGeometry x="400" y="280" width="40" height="40" as="geometry"/>
                </mxCell>
                <mxCell id="18" value="&lt;font color=&quot;#000000&quot;&gt;&lt;b&gt;A&lt;/b&gt;&lt;/font&gt;" style="whiteSpace=wrap;html=1;aspect=fixed;fillColor=#b1ddf0;strokeColor=#10739e;" vertex="1" parent="1">
                    <mxGeometry x="360" y="280" width="40" height="40" as="geometry"/>
                </mxCell>
                <mxCell id="3" value="&lt;font color=&quot;#000000&quot;&gt;Stackframe de la fonction &lt;b&gt;main&lt;/b&gt;&lt;/font&gt;" style="rounded=0;whiteSpace=wrap;html=1;fillColor=#d0cee2;strokeColor=#56517e;" vertex="1" parent="1">
                    <mxGeometry x="320" y="440" width="160" height="60" as="geometry"/>
                </mxCell>
                <mxCell id="4" value="&lt;font color=&quot;#000000&quot;&gt;Espace libre de la stack&lt;/font&gt;" style="rounded=0;whiteSpace=wrap;html=1;fillColor=#f9f7ed;strokeColor=#36393d;" vertex="1" parent="1">
                    <mxGeometry x="320" y="220" width="160" height="60" as="geometry"/>
                </mxCell>
                <mxCell id="6" value="&lt;b&gt;&lt;font color=&quot;#3333ff&quot;&gt;ESP&lt;/font&gt;&lt;/b&gt;" style="rounded=1;whiteSpace=wrap;html=1;strokeColor=#000000;strokeWidth=2;fillColor=#f5f5f5;fontColor=#333333;" vertex="1" parent="1">
                    <mxGeometry x="380" y="270" width="40" height="20" as="geometry"/>
                </mxCell>
                <mxCell id="8" value="&lt;b&gt;&lt;font color=&quot;#000000&quot;&gt;A&lt;/font&gt;&lt;/b&gt;" style="rounded=0;whiteSpace=wrap;html=1;fillColor=#FFCCCC;strokeColor=#56517e;" vertex="1" parent="1">
                    <mxGeometry x="320" y="400" width="40" height="40" as="geometry"/>
                </mxCell>
                <mxCell id="32" value="&lt;b style=&quot;font-size: 12px ; font-style: normal ; letter-spacing: normal ; text-align: center ; text-indent: 0px ; text-transform: none ; word-spacing: 0px ; color: rgb(0 , 0 , 0) ; font-family: &amp;#34;helvetica&amp;#34;&quot;&gt;A&lt;/b&gt;" style="whiteSpace=wrap;html=1;aspect=fixed;fillColor=#b1ddf0;strokeColor=#10739e;" vertex="1" parent="1">
                    <mxGeometry x="440" y="320" width="40" height="40" as="geometry"/>
                </mxCell>
                <mxCell id="33" value="&lt;b&gt;&lt;font color=&quot;#000000&quot;&gt;A&lt;/font&gt;&lt;/b&gt;" style="whiteSpace=wrap;html=1;aspect=fixed;fillColor=#b1ddf0;strokeColor=#10739e;" vertex="1" parent="1">
                    <mxGeometry x="320" y="320" width="40" height="40" as="geometry"/>
                </mxCell>
                <mxCell id="35" value="&lt;font color=&quot;#000000&quot;&gt;&lt;b&gt;A&lt;/b&gt;&lt;/font&gt;" style="whiteSpace=wrap;html=1;aspect=fixed;fillColor=#b1ddf0;strokeColor=#10739e;" vertex="1" parent="1">
                    <mxGeometry x="360" y="320" width="40" height="40" as="geometry"/>
                </mxCell>
                <mxCell id="34" value="&lt;b style=&quot;color: rgb(0 , 0 , 0) ; font-family: &amp;#34;helvetica&amp;#34; ; font-size: 12px ; font-style: normal ; letter-spacing: normal ; text-align: center ; text-indent: 0px ; text-transform: none ; word-spacing: 0px&quot;&gt;A&lt;/b&gt;" style="whiteSpace=wrap;html=1;aspect=fixed;fillColor=#b1ddf0;strokeColor=#10739e;" vertex="1" parent="1">
                    <mxGeometry x="400" y="320" width="40" height="40" as="geometry"/>
                </mxCell>
                <mxCell id="7" value="&lt;b&gt;&lt;font color=&quot;#ff1c3a&quot;&gt;EBP&lt;/font&gt;&lt;/b&gt;" style="rounded=1;whiteSpace=wrap;html=1;strokeColor=#000000;strokeWidth=2;fillColor=#f5f5f5;fontColor=#333333;" vertex="1" parent="1">
                    <mxGeometry x="380" y="350" width="40" height="20" as="geometry"/>
                </mxCell>
                <mxCell id="42" value="&lt;font color=&quot;#000000&quot;&gt;&lt;b&gt;A&lt;/b&gt;&lt;/font&gt;" style="rounded=0;whiteSpace=wrap;html=1;fillColor=#CCFFCC;strokeColor=#56517e;" vertex="1" parent="1">
                    <mxGeometry x="440" y="360" width="40" height="40" as="geometry"/>
                </mxCell>
                <mxCell id="45" value="&lt;b&gt;&lt;font color=&quot;#000000&quot;&gt;A&lt;/font&gt;&lt;/b&gt;" style="rounded=0;whiteSpace=wrap;html=1;fillColor=#FFCCCC;strokeColor=#56517e;" vertex="1" parent="1">
                    <mxGeometry x="360" y="400" width="40" height="40" as="geometry"/>
                </mxCell>
                <mxCell id="46" value="&lt;b&gt;&lt;font color=&quot;#000000&quot;&gt;A&lt;/font&gt;&lt;/b&gt;" style="rounded=0;whiteSpace=wrap;html=1;fillColor=#FFCCCC;strokeColor=#56517e;" vertex="1" parent="1">
                    <mxGeometry x="400" y="400" width="40" height="40" as="geometry"/>
                </mxCell>
                <mxCell id="47" value="&lt;b&gt;&lt;font color=&quot;#000000&quot;&gt;A&lt;/font&gt;&lt;/b&gt;" style="rounded=0;whiteSpace=wrap;html=1;fillColor=#FFCCCC;strokeColor=#56517e;" vertex="1" parent="1">
                    <mxGeometry x="440" y="400" width="40" height="40" as="geometry"/>
                </mxCell>
            </root>
        </mxGraphModel>
    </diagram>
</mxfile>